<svg width="14" height="15" viewBox="0 0 14 15" fill="none" xmlns="http://www.w3.org/2000/svg">
<g clip-path="url(#clip0)">
<path d="M7.54628 11.0425L13.7763 4.82606C13.9206 4.68228 14 4.49035 14 4.2857C14 4.08105 13.9206 3.88912 13.7763 3.74534L13.3176 3.28755C13.0188 2.98966 12.533 2.98966 12.2345 3.28755L7.0029 8.5076L1.76547 3.28176C1.62126 3.13798 1.42901 3.05859 1.22402 3.05859C1.0188 3.05859 0.826562 3.13798 0.682239 3.28176L0.223657 3.73955C0.0794468 3.88344 -4.45383e-08 4.07526 -5.35037e-08 4.27991C-6.24691e-08 4.48456 0.0794467 4.67649 0.223657 4.82027L6.45941 11.0425C6.60408 11.1866 6.79723 11.2657 7.00256 11.2653C7.20869 11.2657 7.40173 11.1866 7.54628 11.0425Z" fill="#576A7E"/>
</g>
<defs>
<clipPath id="clip0">
<rect width="13.969" height="14" fill="white" transform="translate(14 0.177246) rotate(90)"/>
</clipPath>
</defs>
</svg>
