<svg width="29" height="29" viewBox="0 0 29 29" fill="none" xmlns="http://www.w3.org/2000/svg">
<path d="M21.9775 21.5491C20.1216 21.5491 18.5913 23.0468 18.5913 24.9352C18.5913 26.7911 20.089 28.3214 21.9775 28.3214C23.8334 28.3214 25.3637 26.8237 25.3637 24.9352C25.3311 23.0794 23.8334 21.5491 21.9775 21.5491Z" fill="white"/>
<path d="M27.9359 5.39969C27.8708 5.39969 27.7731 5.36713 27.6754 5.36713H7.16305L6.83746 3.18566C6.6421 1.75305 5.40485 0.678589 3.93968 0.678589H1.30237C0.586068 0.678589 0 1.26466 0 1.98096C0 2.69727 0.586068 3.28334 1.30237 3.28334H3.93968C4.10248 3.28334 4.23271 3.41357 4.26527 3.57637L6.28395 17.3164C6.54443 19.0421 8.04216 20.3444 9.80036 20.3444H23.345C25.0381 20.3444 26.5033 19.1397 26.8615 17.4792L28.9778 6.89742C29.108 6.21368 28.6522 5.52993 27.9359 5.39969Z" fill="white"/>
<path d="M13.6749 24.7724C13.6098 22.9817 12.1121 21.5491 10.3213 21.5491C8.43286 21.6468 7.00025 23.2096 7.06537 25.0655C7.13049 26.8562 8.59566 28.2889 10.3864 28.2889H10.4515C12.3074 28.1912 13.7726 26.6283 13.6749 24.7724Z" fill="white"/>
</svg>
