<svg width="16" height="34" viewBox="0 0 16 34" fill="none" xmlns="http://www.w3.org/2000/svg">
<line x1="8.5" x2="8.5" y2="34" stroke="#E5E5E5"/>
<circle cx="8" cy="17" r="7.5" fill="white" stroke="#E5E5E5"/>
<g clip-path="url(#clip0)">
<path d="M7.68784 20.2223L4.1278 16.6622C4.0454 16.5799 4 16.47 4 16.3528C4 16.2356 4.0454 16.1257 4.1278 16.0433L4.38992 15.7811C4.56071 15.6105 4.8383 15.6105 5.00884 15.7811L7.99834 18.7706L10.9912 15.7778C11.0736 15.6955 11.1834 15.65 11.3006 15.65C11.4178 15.65 11.5277 15.6955 11.6101 15.7778L11.8722 16.04C11.9546 16.1224 12 16.2323 12 16.3495C12 16.4667 11.9546 16.5766 11.8722 16.6589L8.30891 20.2223C8.22624 20.3049 8.11587 20.3502 7.99854 20.35C7.88075 20.3502 7.77044 20.3049 7.68784 20.2223Z" fill="#75808C"/>
</g>
<defs>
<clipPath id="clip0">
<rect width="8" height="8" fill="white" transform="matrix(-4.37114e-08 1 1 4.37114e-08 4 14)"/>
</clipPath>
</defs>
</svg>
