<svg width="19" height="19" viewBox="0 0 19 19" fill="none" xmlns="http://www.w3.org/2000/svg">
<path d="M18.3248 14.9726L15.1976 11.8454C15.7662 10.7082 16.1453 9.38154 16.1453 8.05486C16.1453 3.601 12.5443 0 8.09039 0C3.63652 0 0.0355225 3.601 0.0355225 8.05486C0.0355225 12.5087 3.63652 16.1097 8.09039 16.1097C9.41707 16.1097 10.7438 15.7307 11.8809 15.1621L15.0081 18.2893C15.9557 19.2369 17.3772 19.2369 18.3248 18.2893C19.1777 17.3416 19.1777 15.9202 18.3248 14.9726ZM8.09039 14.2145C4.67892 14.2145 1.93079 11.4663 1.93079 8.05486C1.93079 4.64339 4.67892 1.89526 8.09039 1.89526C11.5019 1.89526 14.25 4.64339 14.25 8.05486C14.25 11.4663 11.5019 14.2145 8.09039 14.2145Z" fill="white"/>
</svg>
